Coordinates
version=1
nRows=4
nColumns=46
inDegrees=yes

Units are S.I. units (second, meters, Newtons, ...)
If the header above contains a line with 'inDegrees', this indicates whether rotational values are in degrees (yes) or radians (no).

endheader 
time	pelvis_tilt	pelvis_list	pelvis_rotation	pelvis_tx	pelvis_ty	pelvis_tz	hip_flexion_l	hip_adduction_l	hip_rotation_l	hip_flexion_r	hip_adduction_r	hip_rotation_r	knee_angle_l	knee_angle_r	ankle_angle_l	ankle_angle_r	subtalar_angle_l	subtalar_angle_r	mtp_angle_l	mtp_angle_r	lumbar_extension	lumbar_bending	lumbar_rotation	arm_flex_l	arm_add_l	arm_rot_l	arm_flex_r	arm_add_r	arm_rot_r	elbow_flex_l	elbow_flex_r	pro_sup_l	pro_sup_r	hip_flexion_l/activation	hip_flexion_r/activation	hip_adduction_l/activation	hip_adduction_r/activation	hip_rotation_l/activation	hip_rotation_r/activation	knee_angle_l/activation	knee_angle_r/activation	ankle_angle_l/activation	ankle_angle_r/activation	subtalar_angle_l/activation	subtalar_angle_r/activation	
          0.84503774	         -7.35759968	         -2.35915628	         -1.52680717	          0.96772469	          0.93276297	         -0.23349851	         11.34281359	          1.41230584	          2.00042077	         25.66781189	          4.62660766	         -1.98107824	          9.83798742	         60.93871460	          4.57819779	         -6.07542659	          4.48999728	        -13.56809030	         -9.60404630	         -3.91091947	          7.77398069	          2.23516196	         -1.53040005	         -2.03011279	        -13.62953769	         -4.19672234	        -10.29918810	        -11.51038305	          2.83055656	         22.90115053	         21.15912800	         82.00996801	         80.97167496	          5.64200122	          1.00849564	        -23.52783278	          1.05525942	         -0.20048290	         -1.00518636	          0.40697424	         -2.47181818	        -29.43049485	          2.01004749	          9.71217223	         -0.60359978	
          0.86518868	         -7.54872594	         -2.73674408	         -0.52766278	          0.99025623	          0.93481533	         -0.23361586	          9.64089112	          1.01507719	          2.65834508	         28.15827402	          4.81766524	         -2.68696379	          8.90103402	         57.57220665	          4.83986847	         -3.42377201	          5.69671246	        -14.44648387	        -10.26422299	         -2.72828471	          7.79782469	          2.49691436	         -2.38109184	          0.27386423	        -14.15678273	         -2.81810978	        -12.03019165	        -11.16883398	          1.91514375	         24.35387650	         20.39949977	         81.94196922	         80.77726349	         -4.91350296	         10.83083103	        -27.99904931	         -4.49538056	         -1.68206178	          0.15779738	          7.63509586	         -6.57742164	        -30.01796026	          3.48654389	          8.04921737	         -1.13965202	
          0.88533962	         -7.70912424	         -2.84239159	          0.46266847	          1.01252028	          0.93529020	         -0.23358647	          8.02181351	          0.87134644	          3.25271742	         30.21889777	          4.57857258	         -3.32726372	          8.19022841	         53.32039559	          5.35269425	         -0.83792609	          6.68102878	        -14.90933613	        -10.86758634	         -1.72292681	          7.76833378	          2.41463617	         -3.01915858	          2.88433714	        -14.74903630	         -1.14720118	        -13.92526033	        -10.65478612	          0.80675816	         25.96339841	         19.74718752	         81.84436153	         80.66406762	         -8.52286679	         12.44399641	        -33.65569501	         -8.80222690	         -2.96237608	          1.32848578	         10.82283348	         -4.94099624	        -31.37948824	          2.97570842	          6.82059504	         -1.07000780	
          0.90549057	         -7.83068572	         -2.69157238	          1.40926849	          1.03464921	          0.93408197	         -0.23338533	          6.43541289	          0.97372574	          3.78455750	         31.89610782	          3.91298626	         -3.88339338	          7.67040655	         48.47338561	          6.11189804	          1.58398047	          7.42522464	        -14.84637245	        -11.48770395	         -1.12251580	          7.67892006	          2.01755828	         -3.46114094	          5.72631045	        -15.38747088	          0.73973022	        -15.96964095	         -9.97327632	         -0.40710452	         27.73978577	         19.11605002	         81.69965897	         80.65147535	         -4.09717142	          6.02124738	        -35.61039592	         -8.13153233	         -3.88067848	          1.37241791	          9.91031264	          1.70777360	        -34.14461345	          1.50054743	          6.77891446	         -0.59100608	
